:SAMPLES-PER-SECOND 30
:FULLY-SPECIFIED
:DEGREES
346
root  56.9188 37.9106 18.6293 -169.378 14.4563 176.702
RightUpLeg  -37.0632 -19.6658 -8.06817
RightLeg  22.8555 4.0066 1.60932
RightFoot  4.266 -0.8371 6.30736
RightToes  0.00048216 0.542163 -0.142577
Spine  48.238 -4.32489 10.9127
Spine1  9.99239 0.869526 -1.85368
HEad  -13.81 -12.2143 -0.289341
LeftShoulder1  8.84016 -19.6248 -32.1283
LeftArm  -3.80283 -44.0346 -38.8446
LeftForeArm  25.78 -17.0529 -5.01793
LeftHand  -0.25398 0.0180481 5.50724
RightShoulder  3.31161 9.03121 20.0239
RightArm  -16.9697 41.5129 30.1397
RightForeArm  5.7559 2.00933 5.87103
RightHand  -1.54657 4.68361 -18.0397
LeftUpLeg  -38.9832 8.83722 -8.01205
LeftLeg  37.0676 -0.599703 -0.105934
LeftFoot  -2.93104 -0.226727 3.30385
LeftToes  1.06246e-005 4.65856e-005 -8.18501e-006
347
root  57.9698 37.7653 19.1904 -166.731 11.7393 176.88
RightUpLeg  -41.4603 -21.2028 -4.92375
RightLeg  25.5665 2.68913 1.18179
RightFoot  2.83448 -0.588261 4.89258
RightToes  0.00048216 0.542163 -0.142577
Spine  50.9739 -5.17141 12.1759
Spine1  10.1727 1.17047 -2.28242
HEad  -18.5441 -12.1149 0.764188
LeftShoulder1  8.63861 -20.5716 -29.7402
LeftArm  -8.66757 -49.5845 -39.2736
LeftForeArm  28.2573 -13.5827 -5.66897
LeftHand  -0.25398 0.0180481 5.50724
RightShoulder  3.21849 9.79021 17.6503
RightArm  -20.8452 46.2989 25.8534
RightForeArm  4.35427 -1.11049 5.29942
RightHand  -1.45339 4.20176 -17.7983
LeftUpLeg  -44.3461 17.3381 -13.113
LeftLeg  37.2201 4.45718 3.95486
LeftFoot  -1.7416 -0.310884 3.81167
LeftToes  1.06246e-005 4.65856e-005 -8.18501e-006
348
root  58.9621 37.6135 19.6157 -163.543 9.76349 176.881
RightUpLeg  -46.3286 -22.5031 -1.38937
RightLeg  27.5211 2.57648 1.22701
RightFoot  2.11608 -0.451763 3.95228
RightToes  0.00048216 0.542163 -0.142577
Spine  53.3473 -5.87428 12.5403
Spine1  10.9251 1.41756 -2.61155
HEad  -23.6362 -11.1511 1.39969
LeftShoulder1  8.64219 -21.134 -28.9161
LeftArm  -12.9224 -55.5071 -37.0149
LeftForeArm  28.8801 -10.3448 -5.9543
LeftHand  -0.25398 0.0180481 5.50724
RightShoulder  3.01575 10.6067 14.5286
RightArm  -25.9588 51.1138 21.2174
RightForeArm  3.16271 -3.68308 4.4859
RightHand  -1.36525 3.82622 -17.398
LeftUpLeg  -50.1312 25.4799 -21.0982
LeftLeg  34.8771 9.28184 7.25147
LeftFoot  -3.07918 -0.468848 6.88397
LeftToes  1.06246e-005 4.65856e-005 -8.18501e-006
349
root  59.8645 37.3548 19.9087 -159.802 8.19351 177.282
RightUpLeg  -51.9579 -23.3374 2.7547
RightLeg  29.7723 2.42685 1.26235
RightFoot  1.13398 -0.343264 3.20887
RightToes  0.00048216 0.542163 -0.142577
Spine  55.3567 -6.36202 13.0178
Spine1  11.1827 2.0802 -3.25579
HEad  -27.1516 -10.6326 1.13579
LeftShoulder1  8.82125 -22.3501 -27.9188
LeftArm  -17.3968 -60.6502 -32.9961
LeftForeArm  27.4529 -7.45375 -5.7256
LeftHand  -0.25398 0.0180481 5.50724
RightShoulder  2.83187 10.9924 12.5089
RightArm  -32.0565 55.0171 14.8314
RightForeArm  2.08539 -4.83283 3.828
RightHand  -1.23075 3.5511 -16.1871
LeftUpLeg  -56.7268 30.62 -29.0013
LeftLeg  32.3775 11.4154 8.07092
LeftFoot  -6.24578 -0.431708 10.4676
LeftToes  1.06246e-005 4.65856e-005 -8.18501e-006
350
root  60.7153 37.0119 20.1228 -155.833 6.43405 178.057
RightUpLeg  -57.932 -23.6169 7.27893
RightLeg  32.3298 1.94514 1.08076
RightFoot  -0.505852 -0.221968 2.29741
RightToes  0.00048216 0.542163 -0.142577
Spine  57.2362 -6.6251 13.502
Spine1  10.4253 2.6177 -3.47904
HEad  -30.3919 -9.62301 0.939039
LeftShoulder1  8.83273 -24.079 -25.7144
LeftArm  -23.5612 -64.1728 -26.5542
LeftForeArm  24.173 -5.30407 -5.0007
LeftHand  -0.25398 0.0180481 5.50724
RightShoulder  2.75452 11.4503 11.2833
RightArm  -38.8231 57.674 6.80724
RightForeArm  0.669848 -4.62659 3.50755
RightHand  -1.05043 3.17033 -14.4682
LeftUpLeg  -63.0674 31.3406 -33.102
LeftLeg  32.0849 10.8084 7.57425
LeftFoot  -8.64353 -0.223185 11.4647
LeftToes  1.06246e-005 4.65856e-005 -8.18501e-006
351
root  61.5641 36.6489 20.2823 -152.27 4.31384 178.592
RightUpLeg  -63.5229 -23.6682 11.5466
RightLeg  35.0143 1.48913 0.863711
RightFoot  -2.15347 -0.0709889 0.693047
RightToes  0.00048216 0.542163 -0.142577
Spine  59.0018 -6.78097 13.5012
Spine1  9.95494 2.44905 -2.87307
HEad  -34.2779 -7.90317 1.15497
LeftShoulder1  8.18557 -25.3441 -21.8603
LeftArm  -32.7909 -66.9189 -17.1787
LeftForeArm  20.4016 -3.7282 -3.97126
LeftHand  -0.25398 0.0180481 5.50724
RightShoulder  2.49001 11.9011 8.75851
RightArm  -46.4644 59.5851 -1.22778
RightForeArm  -1.45177 -3.68259 3.11685
RightHand  -0.924314 2.92454 -13.1437
LeftUpLeg  -68.3141 29.7783 -33.7924
LeftLeg  33.8482 8.67449 6.56584
LeftFoot  -9.24602 -0.123739 9.85303
LeftToes  1.06246e-005 4.65856e-005 -8.18501e-006
352
root  62.3977 36.2852 20.3641 -149.523 2.31805 178.632
RightUpLeg  -68.3008 -23.6834 15.0942
RightLeg  37.8749 1.07252 0.620448
RightFoot  -3.62726 0.079864 -1.5557
RightToes  0.00048216 0.542163 -0.142577
Spine  61.2396 -6.88784 13.2333
Spine1  9.20374 2.1797 -2.50889
HEad  -37.7599 -6.66899 1.73733
LeftShoulder1  7.40236 -26.3678 -17.9969
LeftArm  -43.9202 -69.097 -5.66064
LeftForeArm  17.0384 -2.3354 -2.94141
LeftHand  -0.25398 0.0180481 5.50724
RightShoulder  2.14942 11.9703 6.21029
RightArm  -53.8171 60.2208 -8.92882
RightForeArm  -4.57968 -2.3926 2.8156
RightHand  -0.925416 3.31973 -12.5913
LeftUpLeg  -72.9541 28.7487 -34.5999
LeftLeg  36.0096 6.15872 5.16067
LeftFoot  -9.09897 -0.103493 8.0745
LeftToes  1.06246e-005 4.65856e-005 -8.18501e-006
353
root  63.1744 35.9414 20.3606 -147.284 0.723938 178.445
RightUpLeg  -72.352 -23.627 18.0789
RightLeg  40.5463 0.647999 0.305117
RightFoot  -5.20951 0.153118 -3.50162
RightToes  0.00048216 0.542163 -0.142577
Spine  63.8348 -7.01291 12.715
Spine1  8.06242 2.13282 -2.90799
HEad  -40.152 -5.88708 2.10717
LeftShoulder1  6.8356 -26.9331 -15.4791
LeftArm  -56.2885 -70.842 6.74068
LeftForeArm  13.9174 -1.44184 -1.95188
LeftHand  -0.25398 0.0180481 5.50724
RightShoulder  1.87663 11.9253 4.26631
RightArm  -60.0741 59.8582 -15.0839
RightForeArm  -8.21433 -1.32675 2.44073
RightHand  -1.00607 4.41697 -12.2205
LeftUpLeg  -77.0241 28.2559 -36.161
LeftLeg  37.6595 4.28784 3.92596
LeftFoot  -9.08325 -0.0897677 7.31907
LeftToes  1.06246e-005 4.65856e-005 -8.18501e-006
354
root  63.8659 35.6154 20.289 -145.074 -0.703217 178.428
RightUpLeg  -76.0446 -23.4044 21.082
RightLeg  42.7747 0.386427 0.0802791
RightFoot  -6.80346 0.138848 -4.64198
RightToes  0.00048216 0.542163 -0.142577
Spine  65.8877 -7.12213 12.2135
Spine1  7.11644 2.22987 -3.75957
HEad  -41.8797 -5.02903 2.17692
LeftShoulder1  6.22806 -27.1851 -13.1203
LeftArm  -68.6358 -71.6268 17.5736
LeftForeArm  10.8117 -2.04541 -0.688802
LeftHand  -0.25398 0.0180481 5.50724
RightShoulder  1.71737 11.9483 3.08005
RightArm  -65.5876 59.22 -19.9889
RightForeArm  -12.0393 -0.586509 1.97828
RightHand  -1.0748 5.87398 -11.4448
LeftUpLeg  -80.5504 27.3876 -37.0463
LeftLeg  39.0395 3.07865 3.06161
LeftFoot  -9.07021 -0.08553 7.06859
LeftToes  1.06246e-005 4.65856e-005 -8.18501e-006
355
root  64.4716 35.2992 20.1647 -142.913 -2.17206 178.505
RightUpLeg  -79.5253 -23.1023 24.1748
RightLeg  44.7916 0.226048 -0.0794327
RightFoot  -8.07098 0.110885 -5.79276
RightToes  0.00048216 0.542163 -0.142577
Spine  67.2939 -7.06066 11.7927
Spine1  6.23278 2.21572 -4.22051
HEad  -43.1872 -4.25291 2.17316
LeftShoulder1  5.65168 -27.3574 -10.9434
LeftArm  -78.3146 -71.4678 25.1784
LeftForeArm  8.3452 -4.50264 0.353487
LeftHand  -0.25398 0.0180481 5.50724
RightShoulder  1.58948 11.8784 2.19383
RightArm  -69.7954 58.6816 -23.3172
RightForeArm  -16.2547 0.712616 1.77342
RightHand  -1.12733 7.47121 -10.5864
LeftUpLeg  -83.7374 26.2985 -37.3352
LeftLeg  40.4464 1.91332 2.13932
LeftFoot  -8.67922 -0.111928 7.05209
LeftToes  1.06246e-005 4.65856e-005 -8.18501e-006
